HIERARCHY
ROOT hip
{
	OFFSET 0.000000 0.000000 0.000000 
	CHANNELS 6 Xposition Yposition Zposition Xrotation Zrotation Yrotation
	JOINT abdomen
	{
		OFFSET 0.000000 3.402643 0.000000 
		CHANNELS 3 Xrotation Zrotation Yrotation
		JOINT chest
		{
			OFFSET 0.000000 8.438565 -0.680529 
			CHANNELS 3 Xrotation Zrotation Yrotation
			JOINT neck
			{
				OFFSET 0.000000 10.207942 -0.272212 
				CHANNELS 3 Xrotation Zrotation Yrotation
				JOINT head
				{
					OFFSET 0.000000 3.130431 0.000000 
					CHANNELS 3 Xrotation Zrotation Yrotation
					End Site
					{
						OFFSET 0.000000 3.130435 0.000000 
					}
				}
			}
			JOINT lCollar
			{
				OFFSET 3.470700 6.669187 -0.816635 
				CHANNELS 3 Yrotation Zrotation Xrotation
				JOINT lShldr
				{
					OFFSET 3.198488 0.000000 0.000000 
					CHANNELS 3 Zrotation Yrotation Xrotation
					JOINT lForeArm
					{
						OFFSET 10.139888 0.000000 0.000000 
						CHANNELS 3 Yrotation Zrotation Xrotation
						JOINT lHand
						{
							OFFSET 8.370511 0.000000 0.000000 
							CHANNELS 3 Zrotation Yrotation Xrotation
							End Site
							{
								OFFSET 4.083176 0.000000 0.000000 
							}
						}
					}
				}
			}
			JOINT rCollar
			{
				OFFSET -3.470700 6.669187 -0.816635 
				CHANNELS 3 Yrotation Zrotation Xrotation
				JOINT rShldr
				{
					OFFSET -3.198488 0.000000 0.000000 
					CHANNELS 3 Zrotation Yrotation Xrotation
					JOINT rForeArm
					{
						OFFSET -10.139888 0.000000 0.000000 
						CHANNELS 3 Yrotation Zrotation Xrotation
						JOINT rHand
						{
							OFFSET -8.370511 0.000000 0.000000 
							CHANNELS 3 Zrotation Yrotation Xrotation
							End Site
							{
								OFFSET -4.083176 0.000000 0.000000 
							}
						}
					}
				}
			}
		}
	}
	JOINT lThigh
	{
		OFFSET 5.308129 -1.633274 1.361059 
		CHANNELS 3 Xrotation Zrotation Yrotation
		JOINT lShin
		{
			OFFSET -2.041588 -20.007561 0.000000 
			CHANNELS 3 Xrotation Zrotation Yrotation
			JOINT lFoot
			{
				OFFSET 0.000000 -19.190928 -1.224953 
				CHANNELS 3 Xrotation Yrotation Zrotation
				End Site
				{
					OFFSET 0.000000 -2.449906 4.627600 
				}
			}
		}
	}
	JOINT rThigh
	{
		OFFSET -5.308129 -1.633274 1.361059 
		CHANNELS 3 Xrotation Zrotation Yrotation
		JOINT rShin
		{
			OFFSET 2.041588 -20.007561 0.000000 
			CHANNELS 3 Xrotation Zrotation Yrotation
			JOINT rFoot
			{
				OFFSET 0.000000 -19.190928 -1.224953 
				CHANNELS 3 Xrotation Yrotation Zrotation
				End Site
				{
					OFFSET 0.000000 -2.449906 4.627600 
				}
			}
		}
	}
}
MOTION
Frames: 18
Frame Time: 0.033333
0.973791 50.321922 -3.198049 -3.525390 -4.228516 170.214127 49.964451 -16.879133 -6.316474 -30.117186 8.388673 -3.348185 51.063168 8.107644 2.471410 -86.406250 -1.269531 -6.650391 2.000000 -2.000000 0.000000 -80.869141 10.175781 -2.205304 -61.650265 -1.277235 -2.327815 9.247305 34.712261 1.497124 -2.000000 2.000000 0.000000 66.650391 -17.539064 36.041981 94.647499 -0.060077 -3.051185 -18.701345 -46.663960 13.238311 -7.131781 -4.616034 4.630297 31.660959 -5.047717 -2.910496 -17.312090 4.087269 2.294776 -8.199484 -10.052011 -10.394697 74.489044 1.328153 4.703536 41.248596 -14.194575 4.835702 
1.947583 50.479240 -6.396099 174.882828 -175.976563 -4.414747 50.869263 -11.422639 -10.772433 -31.171873 9.101563 -4.226971 51.063168 8.107644 2.471410 -88.183594 0.214844 -4.746094 2.000000 -2.000000 0.000000 -80.888672 -3.193359 2.324219 -68.866234 -1.237435 -2.653034 6.839842 32.057064 0.375915 -2.000000 2.000000 0.000000 66.142578 -26.787109 40.263672 92.890236 0.038543 -3.065037 -18.147533 -48.529182 12.244322 -2.603853 -4.740849 -1.056249 26.533480 -4.813112 -2.706918 -16.142469 2.957408 0.381267 -17.719790 -9.908481 -10.046735 78.500473 0.986212 4.748408 35.700390 -16.275478 6.934184 
3.114640 50.642208 -9.963980 174.013687 -176.855469 -1.279833 50.694851 -6.508745 -13.611194 -31.875000 9.462891 -4.541015 51.063168 8.107644 2.471410 -88.437500 1.210938 -2.158203 2.000000 -2.000000 0.000000 -79.404297 -12.988281 6.863042 -76.933228 -0.613485 -2.689335 5.678421 30.302349 -0.578401 -2.000000 2.000000 0.000000 63.496094 -36.650387 43.802769 90.956360 0.154971 -3.048524 -17.433451 -50.079170 11.590084 2.700694 -2.701399 -4.799901 21.487906 -5.429295 -2.218616 -12.300798 1.482081 0.306052 -25.925430 -9.764401 -9.003030 80.807610 0.927771 4.752336 30.349861 -18.150805 8.499637 
4.626314 50.667637 -14.177588 174.013687 -178.974609 -2.021659 48.714943 -1.435284 -13.741302 -32.050781 9.804688 -3.515625 51.063168 8.107644 2.471410 -86.718750 0.781250 1.943360 2.000000 -2.000000 0.000000 -77.148438 -18.496094 10.817214 -86.938843 -0.225067 -2.907537 7.891556 29.241941 -0.365866 -2.000000 2.000000 0.000000 58.359375 -47.822262 45.979092 89.208015 0.251901 -3.033139 -16.036196 -51.539864 10.136825 12.199833 0.907217 -3.062865 11.429063 -5.719922 -1.127202 -5.899007 2.148026 3.872611 -30.893110 -8.816517 -8.192000 78.350296 1.171656 4.709167 25.049856 -18.550585 7.513134 
6.331252 50.347706 -18.761042 174.365250 178.417969 -4.902074 46.092758 3.084874 -12.339444 -31.875000 9.804688 -1.914063 51.063168 8.107644 2.471410 -83.378906 -1.035156 6.445136 2.000000 -2.000000 0.000000 -74.287109 -22.138670 16.220703 -98.178474 0.390267 -2.923679 11.098161 28.538700 -0.574812 -2.000000 2.000000 0.000000 52.480465 -58.281254 47.363285 87.801468 0.329331 -3.018882 -15.581748 -52.841461 9.483569 22.702763 3.574397 1.966491 -0.079173 -5.825460 0.278097 7.735267 3.570063 8.552056 -31.477972 -7.156211 -6.665536 68.349419 1.679509 4.434256 20.337372 -16.395964 4.319088 
7.968687 50.709934 -23.256548 175.068359 176.826172 -7.479928 43.846085 5.765180 -11.334480 -31.162106 9.794922 -0.906541 51.063168 8.107644 2.471410 -80.537109 -2.558593 9.179688 2.000000 -2.000000 0.000000 -70.683594 -24.169922 20.093658 -108.020622 0.539093 -3.225564 14.552430 28.132969 -0.384540 -2.000000 2.000000 0.000000 49.228516 -65.644531 47.120014 86.922821 0.368893 -3.026372 -14.386621 -53.184299 8.521917 26.103777 4.980657 7.185357 -3.360374 -5.269764 0.611892 34.025536 4.285664 10.274858 -28.390242 -5.086340 -3.606013 52.738850 2.948874 4.010099 15.982091 -12.531033 0.797726 
9.467460 54.064098 -27.600004 -4.238281 3.496094 170.947266 41.750549 6.247430 -11.344137 -30.087893 9.785157 -0.732422 51.063168 8.107644 2.471410 -78.388672 -3.769531 10.097658 2.000000 -2.000000 0.000000 -68.037109 -24.482420 23.384624 -113.128906 0.459409 -3.250289 15.959027 27.753786 -0.416293 -2.000000 2.000000 0.000000 51.386719 -69.658203 43.506466 86.571251 0.388391 -3.025244 -12.976439 -52.861511 7.805601 26.444889 6.123442 10.541759 5.782638 -5.412577 -0.707583 37.845615 7.025245 11.812181 -24.282562 -3.348584 -0.925454 37.290741 4.319618 3.141220 12.631351 -8.546898 -1.204423 
10.938147 54.446983 -31.997387 -3.535156 3.857422 169.736984 39.753250 5.865996 -11.610771 -28.652344 9.589845 -1.004232 51.063168 8.107644 2.471410 -76.572266 -4.794921 10.712893 2.000000 -2.000000 0.000000 -68.535156 -22.919922 26.679691 -113.283295 0.794265 -3.210989 14.776856 27.247435 -1.084230 -2.000000 2.000000 0.000000 57.812504 -71.718750 35.684086 86.219139 0.406762 -3.004625 -12.342729 -52.696960 7.602164 24.724722 6.865579 12.474228 19.560781 -5.594562 -1.521361 39.680252 10.584939 10.303363 -21.485817 -1.630409 -0.495475 27.605839 4.862950 2.554799 9.452452 -6.566770 -1.991755 
12.392530 54.387390 -36.396267 -2.646484 3.857422 168.565109 37.900703 4.893209 -11.623516 -27.236328 9.384767 -1.308594 51.063168 8.107644 2.471410 -74.882813 -5.507812 10.585938 2.000000 -2.000000 0.000000 -70.126953 -19.775391 28.736931 -110.662903 0.479095 -3.417653 11.287498 26.470295 -2.527465 -2.000000 2.000000 0.000000 67.832031 -72.314453 24.394533 85.515724 0.435446 -2.993188 -12.321512 -51.993416 7.939579 21.643684 7.861194 14.902661 35.389549 -4.799091 -3.087750 41.788853 13.342973 6.640565 -20.753643 -0.273963 -2.708857 25.854633 5.031447 2.248737 7.146089 -4.679187 -2.846166 
13.842355 53.909363 -40.743889 -1.767578 3.857422 167.392578 36.359344 3.496515 -11.615426 -25.820314 9.169923 -1.796875 51.063168 8.107644 2.471410 -73.525391 -6.015625 10.243116 2.000000 -2.000000 0.000000 -72.333984 -15.312500 30.107422 -106.087349 0.450785 -3.230234 8.150402 25.903929 -3.123065 -2.000000 2.000000 0.000000 81.210938 -70.488274 8.125000 83.756783 0.491684 -2.950822 -15.978565 -51.617062 11.320464 17.523476 9.002715 15.776851 51.772537 -4.022611 -3.801816 42.977570 14.775431 1.267072 -21.248125 1.425516 -7.005799 27.958443 4.891036 2.590931 5.653467 -3.734452 -3.987009 
15.299354 52.850117 -44.987480 -0.908203 3.681641 166.210938 35.384907 2.300989 -11.304890 -24.755859 8.964845 -2.166447 51.063168 8.107644 2.471410 -72.470703 -6.152343 9.423829 2.000000 -2.000000 0.000000 -74.531250 -9.921875 29.793238 -100.307579 -0.068746 -3.249073 5.670032 25.780746 -3.092223 -2.000000 2.000000 0.000000 88.847656 -65.263672 -3.515625 81.470215 0.576606 -2.897020 -20.494209 -50.022106 15.444427 13.407444 10.479169 16.855505 65.817719 -2.965274 -4.541949 45.017242 15.955625 -2.520572 -21.806826 2.694650 -11.875538 32.035301 4.771001 2.578089 3.831842 -3.258293 -4.411619 
16.775330 51.375298 -49.074623 -0.205078 3.496096 164.863876 35.610115 0.763904 -10.435292 -24.423830 8.427734 -2.509766 51.063168 8.107644 2.471410 -72.460938 -4.667968 7.616394 2.000000 -2.000000 0.000000 -75.556641 -4.472656 27.997288 -94.319038 -0.122737 -3.167725 4.731302 26.010870 -2.091346 -2.000000 2.000000 0.000000 88.906250 -57.734375 -5.838335 80.942581 0.605289 -2.885582 -23.870644 -48.555653 18.043400 7.290606 13.423811 15.606041 78.452110 -1.723725 -4.976555 47.972866 15.658236 -7.352725 -21.813477 4.140306 -16.093046 36.065094 4.397696 3.005562 2.363299 -3.736458 -3.867526 
18.282087 49.181747 -52.952431 0.703125 3.154297 162.988281 36.995419 -1.302451 -8.986289 -24.433596 7.900392 -2.734375 51.063168 8.107644 2.471410 -73.603516 -2.412109 4.540605 2.000000 -2.000000 0.000000 -76.357422 1.328125 23.876951 -87.137016 -0.591999 -2.993810 5.916876 27.119940 -0.106769 -2.000000 2.000000 0.000000 83.818359 -47.744141 -0.749415 82.713150 0.640745 -2.991091 -23.991550 -46.838730 17.511776 -0.948318 16.469229 12.434752 89.113457 -0.983414 -5.371139 50.635399 15.472260 -11.214467 -20.436323 5.341882 -18.052227 38.175117 4.315549 2.961879 0.263435 -3.092586 -1.227760 
19.814995 48.549614 -56.590122 1.572266 2.617188 160.917969 37.798290 -3.959052 -7.224475 -24.453125 7.373046 -2.968750 51.063168 8.107644 2.471410 -74.882813 -0.976563 0.166016 2.000000 -2.000000 0.000000 -77.402344 8.154297 18.271484 -78.170822 -0.921218 -2.935599 10.071836 29.075077 5.439625 -2.000000 2.000000 0.000000 78.759766 -35.917969 5.224609 86.569633 0.307012 -2.971283 -23.470068 -45.506855 16.049679 -9.140033 17.332397 8.576737 94.863297 -0.635982 -5.121403 -310.127075 14.837292 -12.935378 -14.093701 7.175685 -15.377449 39.084290 4.407802 3.243294 -14.696540 -4.954709 -2.604339 
21.362139 48.738232 -60.024269 2.460938 1.748047 158.105759 37.867760 -7.239267 -5.345591 -24.287111 7.011719 -3.154297 51.063168 8.107644 2.471410 -76.181641 -1.640625 -6.113312 2.000000 -2.000000 0.000000 -79.453125 15.859375 11.819076 -68.690437 -1.256934 -2.651900 14.559801 30.721323 10.619112 -2.000000 2.000000 0.000000 75.068359 -25.615236 9.390308 91.131317 0.104533 -3.022107 -21.178568 -43.959557 13.017380 -15.348938 15.202022 5.793464 92.945648 -0.479046 -5.211162 43.995186 17.016035 -12.799891 -8.193666 8.563920 -10.774733 37.520767 4.489391 3.185684 -17.586678 -5.840611 -1.628406 
22.923977 49.480305 -63.303131 3.339844 0.507813 154.716919 37.561626 -11.047544 -3.219126 -23.769531 6.484375 -3.134765 51.063168 8.107644 2.471410 -77.402344 -3.095703 -13.740236 2.000000 -2.000000 0.000000 -81.318359 22.910154 5.693359 -60.236244 -1.183714 -2.401922 18.699673 32.040306 15.150140 -2.000000 2.000000 0.000000 72.412109 -17.499998 12.031248 97.450768 -0.175942 -3.077444 -17.191504 -42.601673 8.947438 -20.296864 11.148706 3.361854 85.693253 -0.907779 -5.172437 35.234234 20.119337 -11.722116 -2.713113 8.003068 -5.733032 34.841305 4.509351 2.955426 -12.118203 -6.058634 -0.138562 
24.501440 50.636253 -66.475403 4.384766 -0.878906 150.908203 37.023602 -14.786967 -0.761694 -23.242188 6.113282 -3.115234 51.063168 8.107644 2.471410 -77.441406 -3.251953 -20.517580 2.000000 -2.000000 0.000000 -83.007813 29.765623 0.644531 -54.271538 -1.675910 -2.118765 21.131409 32.557774 18.695780 -2.000000 2.000000 0.000000 69.648438 -10.927733 14.111327 104.989464 -0.877893 -3.118045 -11.149880 -40.835285 3.717700 -23.194431 7.633605 1.118112 76.108467 -1.765244 -4.838774 27.143419 21.543165 -7.350158 2.742232 5.659613 -2.575619 30.638638 4.568041 2.728296 -1.304222 -4.243255 0.495755 
26.094982 51.791748 -69.589134 5.449219 -2.285156 146.708603 36.325912 -18.440720 1.631388 -22.900391 5.761718 -3.115234 51.063168 8.107644 2.471410 -76.718750 -1.738281 -25.361626 2.000000 -2.000000 0.000000 -84.072266 37.060547 -2.646484 -51.985428 -1.908751 -2.085627 19.756674 32.607712 18.216810 -2.000000 2.000000 0.000000 67.871094 -5.449218 15.234373 112.190445 -1.016248 -3.262767 -7.584640 -38.693188 0.766058 -22.388487 5.662648 -1.061862 63.457428 -2.486943 -4.757560 21.345444 18.328259 -1.762712 11.293694 2.508450 -3.635413 20.252319 4.965372 1.919350 7.195348 -3.404059 -8.094981 
